<?xml version="1.0" encoding="utf-8"?>
<!-- Generator: Adobe Illustrator 25.4.1, SVG Export Plug-In . SVG Version: 6.00 Build 0)  -->
<svg version="1.1" id="Capa_1" xmlns="http://www.w3.org/2000/svg" xmlns:xlink="http://www.w3.org/1999/xlink" x="0px" y="0px"
	 viewBox="0 0 512 512" style="enable-background:new 0 0 512 512;" xml:space="preserve">
<style type="text/css">
	.st0{fill:#FFFFFF;}
</style>
<g>
	<path class="st0" d="M506.2,4.7c-4.2-4.2-10.3-5.8-16.1-4c-38.7,11.4-111.7,34.2-187.6,61.2c-2.1-7-4-13.5-5.6-18.6
		c-1.3-4.5-4.7-8.2-9.2-10.1c-4.4-1.9-9.4-1.6-13.6,0.6c-41.6,22.2-152,82.7-213.5,142.6c-1.1,1-2.5,2-3.5,3
		c-11.4,11.4-21.1,23.8-29.1,37c-0.2,0.3-0.4,0.7-0.6,1c0.2-0.3,0.5-0.7,0.7-1c-1.9,3.1-3.6,6.2-5.3,9.3c0.1-0.3,0.3-0.6,0.4-0.9
		c-0.2,0.3-0.3,0.6-0.5,0.9c-2.2,5.1-3.3,10.6-3.3,16.4v160.2c0,0.1,0.1,0.1,0.1,0.2v2.3c0,18.1,11.3,34.2,28.4,40.4c0,0,0,0,0,0
		c0.1,0,0.1,0,0.1,0l128.9,46c9.4,3.4,19.6,3.4,28.9,0l128.9-46c6.5-2.4,12.4-6.5,17.1-11.6l2.1-2.4
		C407.4,368,458.2,274.9,478.1,237c2.2-4.3,2.5-9.3,0.6-13.8c-1.7-4.3-5.5-7.7-10.1-9.1c-5.2-1.6-11.6-3.5-18.6-5.6
		c27-76,49.8-149,61.4-187.8C512.1,15.1,511.5,8.8,506.2,4.7z M328,388.5c0,14.5-9.6,27.4-22.7,32.3l-102.7,36.7
		c-7.4,2.7-15.6,2.7-23,0L76.9,420.6c-13.6-4.9-22.7-17.8-22.7-32.3V258.5c0-14.5,9.1-27.4,22.7-32.3l102.7-36.6
		c7.4-2.7,15.6-2.7,23,0l102.7,36.7c13.2,4.9,22.7,17.8,22.7,32.3V388.5z"/>
	<path class="st0" d="M28.1,216.4c-1.9,3.1-3.6,6.2-5.3,9.3c0.1-0.3,0.3-0.6,0.4-0.9c1.4-2.5,2.7-5,4.2-7.4
		C27.6,217.1,27.9,216.7,28.1,216.4z"/>
	<polygon class="st0" points="293.8,287.8 293.8,388.4 208.2,419 208.2,318.4 	"/>
	<polygon class="st0" points="284,255 191.1,288.2 98.2,255 191.1,221.8 	"/>
	<path class="st0" d="M27.4,217.4c-1.6,2.3-3,4.8-4.2,7.4c-0.1,0.3-0.3,0.6-0.4,0.9c1.7-3.1,3.4-6.2,5.3-9.3
		C27.9,216.7,27.6,217.1,27.4,217.4z"/>
</g>
</svg>
